<?xml version="1.0" standalone="no"?>
<!DOCTYPE svg PUBLIC "-//W3C//DTD SVG 20010904//EN"
 "http://www.w3.org/TR/2001/REC-SVG-20010904/DTD/svg10.dtd">
<svg version="1.0" xmlns="http://www.w3.org/2000/svg"
 width="1080.000000pt" height="1280.000000pt" viewBox="0 0 1080.000000 1280.000000"
 preserveAspectRatio="xMidYMid meet">
<metadata>
Created by potrace 1.15, written by Peter Selinger 2001-2017
</metadata>
<g transform="translate(0.000000,1280.000000) scale(0.100000,-0.100000)"
fill="#ffffff" stroke="none">
<path d="M5272 12789 c-352 -63 -686 -360 -982 -874 -118 -203 -297 -606 -365
-815 -9 -30 -21 -59 -25 -63 -3 -4 -71 22 -151 59 -734 338 -1347 454 -1778
339 -51 -14 -139 -49 -194 -77 -86 -44 -117 -67 -192 -142 -93 -94 -146 -177
-194 -306 -118 -322 -84 -777 100 -1323 64 -190 170 -449 245 -599 19 -37 34
-71 34 -76 0 -5 -42 -24 -93 -42 -359 -127 -707 -294 -967 -464 -366 -241
-582 -489 -676 -776 -25 -77 -28 -99 -28 -225 0 -126 3 -148 28 -225 70 -215
196 -391 411 -577 193 -167 476 -342 767 -474 137 -63 415 -174 506 -204 41
-13 53 -21 49 -34 -3 -9 -35 -81 -72 -161 -350 -758 -458 -1409 -304 -1830 87
-235 248 -402 473 -489 160 -62 250 -76 471 -76 217 1 320 14 570 75 271 66
576 177 879 319 60 29 113 48 116 44 4 -4 16 -33 25 -63 35 -109 159 -408 229
-555 548 -1141 1280 -1455 1929 -826 212 205 391 467 563 826 70 147 194 446
229 555 9 30 21 59 25 63 3 4 56 -15 116 -44 398 -186 807 -320 1149 -376 157
-25 457 -25 580 1 374 77 607 298 699 661 8 33 20 112 27 175 40 396 -90 942
-366 1540 -37 80 -69 152 -72 161 -4 13 8 21 49 34 91 30 369 141 506 204 291
132 574 307 767 474 215 186 341 362 411 577 25 77 28 99 28 225 0 126 -3 148
-28 225 -94 287 -310 535 -676 776 -260 170 -608 337 -967 464 -51 18 -93 37
-93 42 0 5 15 39 34 76 75 150 181 409 245 599 184 546 218 1001 100 1323 -48
129 -101 212 -194 306 -75 75 -106 98 -192 142 -55 28 -143 63 -194 77 -431
115 -1044 -1 -1778 -339 -80 -37 -148 -63 -151 -59 -4 4 -16 33 -25 63 -36
110 -159 408 -229 555 -163 339 -325 582 -524 787 -164 168 -336 279 -512 328
-87 24 -257 34 -338 19z m321 -419 c339 -83 675 -409 954 -925 79 -146 223
-457 223 -481 0 -2 -60 -35 -132 -75 -328 -179 -751 -449 -1072 -683 -88 -64
-162 -116 -166 -116 -4 0 -78 52 -166 116 -321 234 -744 504 -1071 683 -73 40
-133 74 -133 76 0 2 23 57 50 123 109 258 269 544 413 739 96 129 273 309 377
382 237 167 477 220 723 161z m-2676 -1199 c157 -24 342 -68 513 -123 135 -43
400 -144 413 -157 4 -4 -17 -92 -47 -197 -106 -371 -205 -821 -262 -1199 -17
-108 -33 -184 -41 -191 -7 -6 -41 -15 -76 -18 -319 -36 -1001 -184 -1387 -301
-63 -19 -116 -33 -118 -31 -2 2 -25 57 -51 122 -100 247 -187 544 -228 779
-24 141 -25 508 -1 615 44 199 120 344 243 465 126 124 286 204 480 239 122
22 401 20 562 -3z m5519 4 c202 -35 361 -113 489 -240 123 -121 199 -266 243
-465 24 -107 23 -474 -1 -615 -41 -235 -128 -532 -228 -779 -26 -65 -49 -120
-51 -122 -2 -2 -55 12 -118 31 -386 117 -1068 265 -1387 301 -35 3 -69 12 -76
18 -8 7 -24 83 -41 191 -57 378 -156 828 -262 1199 -30 105 -51 193 -47 197
13 13 278 114 413 157 165 53 356 100 504 122 158 24 438 26 562 5z m-4248
-444 c358 -180 643 -346 980 -574 89 -60 162 -113 162 -118 0 -4 -39 -38 -87
-75 -132 -103 -381 -307 -537 -442 l-139 -119 -116 -7 c-165 -10 -528 -44
-710 -66 -85 -11 -156 -18 -158 -16 -5 4 42 256 83 441 66 303 122 508 236
855 59 181 74 220 83 220 3 0 94 -45 203 -99z m2660 28 c97 -266 209 -656 277
-964 47 -211 98 -476 92 -481 -2 -2 -73 5 -158 16 -182 22 -545 56 -710 66
l-116 7 -139 119 c-156 135 -405 339 -536 442 -49 37 -88 71 -88 75 0 18 456
316 701 457 169 97 631 335 644 330 6 -1 20 -31 33 -67z m-1292 -881 c152
-113 453 -355 534 -427 l45 -41 -175 8 c-96 4 -348 7 -560 7 -212 0 -464 -3
-560 -7 l-175 -8 45 41 c137 122 670 539 690 539 4 0 75 -50 156 -112z m491
-518 c141 -9 160 -13 187 -34 139 -107 737 -696 977 -962 l137 -151 8 -129
c12 -167 12 -1191 0 -1358 l-8 -129 -136 -151 c-170 -189 -649 -668 -845 -845
-124 -112 -155 -135 -190 -142 -23 -4 -207 -13 -409 -20 -294 -10 -442 -10
-735 0 -203 7 -387 16 -410 20 -35 7 -66 30 -190 142 -196 177 -675 656 -845
845 l-136 151 -8 129 c-12 167 -12 1191 0 1358 l8 129 136 150 c266 293 692
715 945 935 57 50 59 50 142 57 288 24 1026 27 1372 5z m-1682 -142 c-162
-151 -620 -609 -784 -783 l-122 -130 6 75 c21 260 84 787 101 841 5 18 31 23
349 64 216 28 456 52 530 54 l50 1 -130 -122z m2166 107 c157 -15 457 -51 621
-76 56 -8 79 -16 82 -28 17 -54 80 -581 101 -841 l6 -75 -122 130 c-164 174
-622 632 -784 783 -151 141 -161 131 96 107z m-3045 -152 c-26 -203 -63 -581
-82 -845 l-6 -96 -82 -94 c-122 -138 -327 -385 -445 -535 -57 -73 -108 -130
-112 -127 -5 3 -75 105 -157 227 -144 216 -262 409 -375 613 -62 110 -257 495
-257 505 0 9 382 135 569 189 197 56 470 122 686 164 99 19 189 37 200 39 11
3 31 5 44 6 22 1 23 -1 17 -46z m4094 0 c216 -43 490 -108 681 -163 187 -54
569 -180 569 -189 0 -10 -195 -395 -257 -505 -113 -204 -231 -397 -375 -613
-82 -122 -152 -224 -157 -227 -4 -3 -55 54 -112 127 -118 150 -323 397 -445
535 l-82 94 -6 96 c-19 265 -56 642 -82 846 l-7 49 49 -8 c27 -4 128 -22 224
-42z m-5670 -525 c177 -332 501 -833 774 -1198 l34 -45 -108 -147 c-275 -377
-542 -797 -716 -1125 -27 -51 -54 -93 -61 -93 -22 0 -190 75 -373 167 -322
161 -512 293 -711 492 -186 187 -279 340 -325 539 -23 97 -15 302 16 397 56
176 142 308 314 481 136 135 233 212 416 327 164 104 610 324 660 326 9 0 40
-46 80 -121z m7157 85 c259 -109 585 -290 773 -432 106 -80 311 -284 373 -372
58 -82 118 -202 147 -294 31 -95 39 -300 16 -397 -46 -199 -139 -352 -325
-539 -199 -199 -389 -331 -711 -492 -183 -92 -351 -167 -373 -167 -7 0 -34 42
-61 93 -174 328 -441 748 -716 1125 l-108 147 34 45 c273 365 597 866 774
1198 36 67 70 122 77 122 6 0 51 -17 100 -37z m-5682 -1329 l0 -726 -39 44
c-80 90 -272 329 -403 501 l-135 179 36 51 c85 123 526 677 539 677 1 0 2
-327 2 -726z m4225 496 c122 -149 328 -416 364 -472 l18 -27 -135 -178 c-131
-172 -323 -411 -403 -501 l-39 -44 0 727 0 727 34 -39 c18 -21 91 -108 161
-193z m-4668 -780 c85 -107 213 -262 284 -344 71 -82 139 -161 150 -175 19
-23 23 -48 34 -191 13 -181 55 -617 70 -720 16 -107 17 -103 -37 -95 -117 17
-459 89 -659 140 -254 63 -791 229 -812 250 -6 6 185 383 275 545 137 243 290
488 450 718 53 76 68 91 77 80 7 -7 82 -101 168 -208z m5256 -13 c144 -216
262 -409 375 -612 81 -146 260 -505 255 -510 -21 -21 -558 -187 -812 -250
-201 -51 -542 -123 -660 -141 l-49 -7 7 49 c26 204 63 581 81 845 l7 97 91
103 c129 148 315 372 436 526 57 73 108 130 112 127 5 -3 75 -105 157 -227z
m-4204 -1152 c165 -165 348 -342 405 -394 l104 -94 -99 7 c-248 17 -821 89
-835 104 -13 15 -82 576 -104 847 l-6 80 117 -125 c64 -69 252 -260 418 -425z
m3341 468 c-26 -305 -91 -830 -104 -845 -14 -15 -587 -87 -835 -104 l-99 -7
104 94 c165 150 593 574 770 765 89 95 164 174 166 174 3 0 2 -35 -2 -77z
m-5199 -629 c387 -109 810 -200 1232 -264 69 -10 128 -22 132 -27 3 -4 19 -91
35 -193 56 -372 154 -822 261 -1194 30 -104 54 -191 54 -193 0 -11 -249 -107
-427 -163 -261 -84 -473 -126 -699 -139 -496 -30 -841 132 -1008 473 -76 153
-105 303 -106 533 0 258 46 510 155 838 86 263 143 398 164 390 9 -4 102 -31
207 -61z m6794 -36 c111 -267 213 -631 245 -871 17 -134 20 -367 5 -472 -37
-255 -145 -460 -315 -597 -305 -246 -836 -267 -1488 -58 -178 56 -427 152
-427 163 0 2 24 89 54 193 107 372 205 822 261 1194 16 102 32 189 35 193 4 5
63 17 132 27 438 66 941 176 1298 284 80 24 148 44 151 45 4 0 26 -45 49 -101z
m-5269 -268 c185 -27 750 -80 854 -80 47 0 54 -4 120 -61 194 -169 446 -377
608 -503 48 -37 87 -71 87 -76 0 -11 -319 -225 -510 -342 -310 -190 -823 -459
-841 -441 -12 12 -91 245 -160 473 -63 205 -147 548 -192 785 -47 244 -49 255
-40 255 4 0 38 -5 74 -10z m3554 -27 c-22 -129 -101 -506 -139 -658 -65 -263
-230 -793 -255 -818 -18 -18 -531 251 -841 441 -191 117 -510 331 -510 342 0
5 39 39 88 76 161 126 413 334 607 503 64 56 74 61 117 61 100 0 682 54 848
79 95 15 92 16 85 -26z m-2025 -79 c201 -3 481 -1 644 5 160 6 292 9 294 7 9
-9 -530 -442 -675 -542 l-54 -37 -47 33 c-143 101 -542 418 -647 515 l-40 36
85 -5 c47 -3 245 -8 440 -12z m380 -783 c319 -233 681 -465 1005 -644 99 -55
183 -103 188 -107 14 -12 -118 -310 -223 -500 -280 -508 -606 -822 -945 -911
-111 -29 -279 -29 -390 0 -339 89 -665 403 -945 911 -105 190 -237 488 -223
500 5 4 89 52 188 107 326 180 681 408 1010 647 88 64 165 114 171 112 7 -3
80 -54 164 -115z"/>
<path d="M5359 9114 c-11 -13 -14 -56 -14 -191 0 -95 -2 -173 -4 -173 -2 0
-41 20 -87 45 -92 50 -113 54 -139 25 -34 -38 -12 -66 110 -135 l110 -62 3
-121 3 -121 -193 110 c-105 60 -198 109 -205 109 -18 0 -53 -37 -53 -55 0 -29
44 -60 248 -174 l202 -115 0 -100 0 -101 -77 -18 c-141 -31 -286 -118 -360
-216 -21 -27 -40 -50 -43 -50 -3 -1 -43 20 -90 47 l-85 47 -5 256 c-5 266 -9
289 -49 289 -9 0 -27 -7 -39 -16 -22 -15 -22 -19 -22 -240 l0 -225 -78 43
c-138 76 -126 55 -130 209 -2 74 -9 140 -14 147 -6 6 -23 12 -39 12 -47 0 -61
-33 -57 -139 2 -50 0 -91 -4 -91 -4 0 -72 36 -151 80 -79 44 -153 80 -164 80
-11 0 -28 -9 -38 -20 -38 -41 -14 -66 153 -158 l154 -85 -54 -32 c-111 -68
-128 -83 -128 -115 0 -30 22 -50 54 -50 9 0 64 29 122 65 59 36 111 65 116 65
13 0 198 -103 198 -111 0 -3 -84 -56 -186 -118 -102 -62 -188 -120 -191 -128
-3 -9 -2 -27 3 -42 19 -54 51 -43 283 98 l213 130 62 -35 c33 -19 71 -40 84
-46 27 -14 27 -17 0 -98 -29 -87 -31 -266 -4 -355 30 -100 30 -100 4 -112 -13
-7 -51 -28 -84 -47 l-62 -35 -213 130 c-228 137 -260 149 -281 104 -20 -45 1
-65 191 -179 99 -60 181 -112 181 -116 0 -8 -183 -110 -197 -110 -5 0 -58 29
-118 65 -59 36 -114 65 -122 65 -30 0 -53 -21 -53 -49 0 -33 12 -44 108 -104
l73 -45 -153 -84 c-167 -93 -190 -117 -153 -158 10 -11 28 -20 39 -20 12 0 86
36 165 80 79 44 147 80 150 80 3 0 5 -41 3 -91 -4 -106 10 -139 57 -139 16 0
33 6 39 13 5 6 12 72 14 146 4 153 -9 133 130 209 l78 43 0 -224 c0 -204 2
-225 18 -240 23 -21 42 -21 68 -3 18 13 19 32 24 273 l5 258 88 49 88 49 16
-24 c41 -62 146 -149 226 -188 77 -38 179 -71 219 -71 16 0 18 -11 18 -103 l0
-103 -214 -122 c-117 -67 -219 -129 -227 -138 -18 -22 0 -66 32 -78 22 -7 51
6 218 102 l192 110 -3 -121 -3 -121 -112 -63 c-122 -69 -143 -95 -108 -133 26
-29 49 -25 141 25 45 25 84 45 86 45 1 0 2 -73 0 -162 -3 -190 4 -213 58 -213
54 0 61 23 58 213 -2 89 -1 162 0 162 2 0 41 -20 86 -45 92 -50 115 -54 141
-25 35 38 14 64 -108 133 l-112 63 -3 121 -3 121 182 -104 c99 -57 191 -107
203 -110 14 -3 31 2 46 14 21 17 23 24 15 48 -9 24 -49 51 -228 154 l-217 124
0 103 c0 92 2 103 18 103 40 0 142 33 219 71 80 39 185 126 226 188 l16 24 88
-49 88 -49 5 -256 c5 -272 8 -289 55 -289 12 0 29 8 38 18 15 16 17 48 17 241
l0 222 78 -43 c139 -76 126 -56 130 -209 2 -74 9 -140 14 -146 6 -7 23 -13 39
-13 47 0 61 33 57 139 -2 50 0 91 3 91 3 0 71 -36 150 -80 79 -44 153 -80 165
-80 11 0 29 9 39 20 37 41 14 65 -153 158 l-153 84 73 45 c96 60 108 71 108
104 0 29 -23 49 -54 49 -9 0 -64 -29 -122 -65 -59 -36 -111 -65 -116 -65 -15
0 -198 102 -198 110 0 4 55 40 123 81 229 136 257 157 257 183 0 30 -24 56
-53 56 -12 0 -118 -58 -236 -129 l-213 -130 -62 35 c-33 19 -71 40 -84 47 -26
12 -26 12 4 112 27 89 25 268 -4 355 -27 81 -27 84 1 98 12 6 50 27 83 46 l62
35 213 -130 c165 -100 221 -129 243 -127 35 4 51 26 42 61 -5 20 -44 49 -191
138 -102 62 -185 115 -185 118 0 8 185 111 198 111 5 0 57 -29 116 -65 58 -36
113 -65 122 -65 32 0 54 20 54 50 0 32 -17 47 -128 115 l-54 32 152 84 c165
91 185 110 156 154 -9 14 -26 25 -38 25 -12 0 -86 -36 -165 -80 -79 -44 -147
-80 -151 -80 -4 0 -6 41 -4 91 4 106 -10 139 -57 139 -16 0 -33 -6 -39 -12 -5
-7 -12 -73 -14 -147 -4 -154 8 -133 -130 -209 l-78 -43 0 224 c0 204 -2 225
-18 240 -23 21 -42 21 -68 3 -18 -13 -19 -32 -24 -273 l-5 -258 -85 -47 c-47
-27 -87 -48 -90 -47 -3 0 -22 23 -43 50 -74 98 -219 185 -359 216 l-78 18 0
101 0 100 193 109 c221 124 257 149 257 176 0 22 -33 59 -53 59 -7 0 -100 -49
-205 -109 l-193 -110 3 121 3 121 110 62 c122 69 144 97 110 135 -26 29 -47
25 -139 -25 -46 -25 -85 -45 -87 -45 -2 0 -3 73 -1 162 3 185 -4 211 -54 216
-20 2 -36 -3 -45 -14z m208 -1199 c142 -48 255 -147 317 -278 102 -216 62
-444 -108 -612 -111 -110 -221 -155 -376 -155 -155 0 -265 45 -376 155 -106
105 -164 239 -164 380 0 172 97 351 244 449 132 87 313 111 463 61z"/>
</g>
</svg>
