<svg xmlns="http://www.w3.org/2000/svg" viewBox="0 0 17.8 17.8"><defs><style>.cls-1{fill:#3c8dbc;}.cls-2{fill:#fff;}</style></defs><title>editar</title><g id="Capa_2" data-name="Capa 2"><g id="Capa_1-2" data-name="Capa 1"><circle class="cls-1" cx="8.9" cy="8.9" r="8.9"/><path class="cls-2" d="M5.29,14l-.39-.1a1.63,1.63,0,0,1-1.1-1.54V5.76A1.63,1.63,0,0,1,5.45,4.13h5.24l-.08.09L9.8,5a.26.26,0,0,1-.18.07H5.81a1,1,0,0,0-1,.71,1.32,1.32,0,0,0,0,.34V12a1.07,1.07,0,0,0,.17.63,1,1,0,0,0,.89.44h5.79a1,1,0,0,0,.86-.41.85.85,0,0,0,.2-.55V8.15a.25.25,0,0,1,0-.12c.3-.29.6-.59.89-.89l0,0a.25.25,0,0,1,0,.08c0,1.71,0,3.43,0,5.14A1.63,1.63,0,0,1,12.24,14l-.06,0Z"/><path class="cls-2" d="M14,5.25a1,1,0,0,1-.32.43l-.29.3L11.86,4.41a5.39,5.39,0,0,1,.47-.5.4.4,0,0,1,.57,0c.33.32.65.63,1,1a1.64,1.64,0,0,1,.14.22Z"/><path class="cls-2" d="M11.57,4.65l1.56,1.58L9.68,9.65,8.13,8.07Z"/><path class="cls-2" d="M7.25,10.51l.62-2.17L9.39,9.9Z"/></g></g></svg>