<svg xmlns="http://www.w3.org/2000/svg" viewBox="0 0 17.81 17.81"><defs><style>.cls-1{fill:#ec2327;}.cls-2{fill:#fff;}</style></defs><title>eliminar</title><g id="Capa_2" data-name="Capa 2"><g id="Capa_1-2" data-name="Capa 1"><circle class="cls-1" cx="8.91" cy="8.91" r="8.91"/><g id="_64._Trash" data-name="64. Trash"><path class="cls-2" d="M13.48,4.33H11.77V3.76a.58.58,0,0,0-.58-.57H6.62a.58.58,0,0,0-.57.57v.57H4.33a.58.58,0,0,0,0,1.15v8a1.15,1.15,0,0,0,1.15,1.14h6.86a1.14,1.14,0,0,0,1.14-1.14v-8a.58.58,0,0,0,0-1.15Zm-1.14,9.15H5.48v-8h6.86Z"/></g><path class="cls-2" d="M11,12.34a.54.54,0,0,0,.5-.57V7.19a.5.5,0,1,0-1,0v4.58A.54.54,0,0,0,11,12.34Z"/><path class="cls-2" d="M8.91,12.34a.55.55,0,0,0,.5-.57V7.19a.55.55,0,0,0-.5-.57.54.54,0,0,0-.5.57v4.58A.54.54,0,0,0,8.91,12.34Z"/><path class="cls-2" d="M6.84,12.34a.55.55,0,0,0,.5-.57V7.19a.55.55,0,0,0-.5-.57.54.54,0,0,0-.5.57v4.58A.54.54,0,0,0,6.84,12.34Z"/></g></g></svg>