<?xml version="1.0" encoding="utf-8"?>
<!-- Svg Vector Icons : http://www.onlinewebfonts.com/icon -->
<!DOCTYPE svg PUBLIC "-//W3C//DTD SVG 1.1//EN" "http://www.w3.org/Graphics/SVG/1.1/DTD/svg11.dtd">
<svg version="1.1" xmlns="http://www.w3.org/2000/svg" xmlns:xlink="http://www.w3.org/1999/xlink" x="0px" y="0px" viewBox="0 0 256 256" xml:space="preserve">
<metadata> Svg Vector Icons : http://www.onlinewebfonts.com/icon </metadata>
<g><g><path fill="#059f00" d="M127.9,10c-31.8,0-62.3,13.2-83.5,34.4C23.5,65.6,10,96.1,10,127.9c0,43.7,23.6,81.1,58.3,102c17.2,10.3,38.4,16.2,59.6,16.2c33.1,0,62-13.2,83.5-34.7c28.6-28.6,42.1-72.6,30.5-114.7C228,46.3,182.5,10,127.9,10L127.9,10z M112.5,186.7c-11.9,11.7-31.3,11.7-43.2,0c-11.9-11.9-11.9-31.3,0-43.2L99.8,113c11.9-11.9,31.3-11.9,43.2,0l0.8,0.8c0.3,0.3,0.5,0.3,0.5,0.5l1.3,1.6c0,0,0,0,0,0.3c1.9,3.2,1.3,6.1-1.3,8.7c-2.4,2.4-5.3,2.9-8.5,1.1c-0.3,0-1.3-1.3-3.2-2.6c-6.4-6.4-15.9-6.1-22.5-0.3l-30.5,30.8c-6.4,6.1-6.4,16.2,0,22.5c6.4,6.1,16.2,6.1,22.5,0l18.3-18.5c6.9,3.4,13.8,3.4,20.4,0.3L112.5,186.7z M186.7,112.2L156.2,143c-11.9,11.7-31.3,11.7-43.2,0l-0.5-0.5l-0.5-0.5c-0.3-0.3-0.3-0.3-0.3-0.5l-1.3-1.6c-1.9-3.2-1.3-6.1,1.1-8.5c2.6-2.6,5.6-3.2,8.7-1.6c0.3,0,0.5,0.3,1.1,0.8l2.1,2.1c6.4,6.1,16.2,6.1,22.5,0l30.5-30.7c6.4-6.1,6.4-16.2,0-22.3c-6.4-6.4-16.2-6.4-22.5,0l-18.3,18.3c-6.9-3.4-13.8-3.4-20.4-0.3l28.3-28.3c11.9-11.9,31.3-11.9,43.2,0c6.1,5.8,9,13,9,21.5C195.7,99.2,192.8,106.4,186.7,112.2z"/></g></g>
</svg>