<?xml version="1.0" encoding="UTF-8"?>
<svg xmlns="http://www.w3.org/2000/svg" width="16" height="16" fill="#ffffff" class="bi bi-person-badge-fill" viewBox="0 0 16 16">
<g id="surface1">
<path d="M 7.085938 12.457031 L 6.058594 12.457031 L 6.058594 11.3125 C 8.230469 10.855469 9.828125 8.914062 9.828125 6.628906 C 9.828125 5.941406 9.714844 5.371094 9.601562 4.800781 C 8.800781 4.570312 8.113281 4.6875 7.65625 5.027344 C 7.769531 5.601562 7.886719 6.058594 7.886719 6.628906 C 8 8.113281 6.855469 9.484375 5.371094 9.601562 C 3.886719 9.714844 2.515625 8.570312 2.398438 6.972656 L 2.398438 6.515625 C 2.398438 5.257812 3.085938 4.230469 4.113281 3.886719 C 4.6875 3.085938 5.371094 2.398438 6.171875 2.058594 C 5.828125 1.828125 5.484375 1.828125 5.257812 1.828125 C 2.742188 1.941406 0.570312 4.113281 0.6875 6.628906 C 0.6875 8.800781 2.171875 10.742188 4.230469 11.3125 L 4.230469 12.34375 L 3.199219 12.34375 C 2.628906 12.34375 2.285156 12.800781 2.285156 13.257812 C 2.285156 13.714844 2.628906 14.171875 3.199219 14.171875 L 4.113281 14.171875 L 4.113281 14.972656 C 4.113281 15.542969 4.570312 16 4.914062 16 C 5.484375 16 5.941406 15.769531 5.941406 15.199219 L 5.941406 14.285156 L 6.972656 14.285156 C 7.65625 14.285156 8 13.714844 8 13.371094 C 7.886719 12.800781 7.429688 12.570312 7.085938 12.457031 Z M 14.398438 0 L 11.65625 0 C 11.085938 0.113281 10.628906 0.6875 10.855469 1.144531 C 10.972656 1.601562 11.3125 1.941406 11.769531 1.941406 L 12.34375 1.828125 L 11.199219 2.972656 C 9.484375 1.601562 6.972656 1.714844 5.371094 3.429688 C 4 4.914062 3.65625 7.085938 4.457031 8.914062 C 4.6875 9.027344 5.027344 9.027344 5.257812 9.027344 C 5.714844 9.027344 6.058594 8.914062 6.515625 8.6875 C 5.601562 7.429688 5.601562 5.828125 6.628906 4.800781 C 7.542969 3.769531 9.257812 3.65625 10.398438 4.6875 L 10.515625 4.800781 C 11.3125 5.601562 11.542969 6.855469 11.3125 7.886719 C 11.085938 8.800781 10.171875 9.601562 9.144531 9.941406 C 8.570312 10.742188 7.769531 11.3125 6.972656 11.65625 C 7.542969 11.769531 8 11.886719 8.570312 11.886719 C 9.714844 11.886719 10.972656 11.3125 11.769531 10.398438 C 13.484375 8.800781 13.714844 6.285156 12.570312 4.230469 L 13.601562 3.199219 L 13.601562 3.886719 C 13.601562 4.457031 14.058594 4.800781 14.515625 4.800781 C 14.742188 4.800781 14.972656 4.6875 15.199219 4.570312 C 15.199219 4.457031 15.3125 4.230469 15.3125 3.886719 L 15.3125 0.914062 C 15.3125 0.457031 15.085938 0 14.515625 0 Z M 14.398438 0 "/>
</g>
</svg>
