<svg xmlns="http://www.w3.org/2000/svg" width="16" height="16" viewBox="0 0 22.71 22.71"><defs><style>.cls-1{fill:#000000;}</style></defs><title>ver_violeta</title><g id="Capa_2" data-name="Capa 2"><g id="Capa_1-2" data-name="Capa 1"><path class="cls-1" d="M11.35,7.14a4.2,4.2,0,1,0,3,1.23A4.22,4.22,0,0,0,11.35,7.14Zm0,6.94a2.73,2.73,0,0,1-2.73-2.73,2.35,2.35,0,0,1,.08-.6,1.59,1.59,0,0,0,2.7-1.14,1.61,1.61,0,0,0-.33-1l.28,0a2.73,2.73,0,0,1,0,5.46Z"/><path class="cls-1" d="M11.35,0A11.36,11.36,0,1,0,22.71,11.35,11.35,11.35,0,0,0,11.35,0Zm7.84,11.67a8.89,8.89,0,0,1-7.84,4.71,8.79,8.79,0,0,1-4.63-1.31,8.86,8.86,0,0,1-3.2-3.4l-.17-.32L3.52,11a8.86,8.86,0,0,1,15.67,0l.17.31Z"/></g></g></svg>